<svg width="20" height="20" viewBox="0 0 20 20" fill="none" xmlns="http://www.w3.org/2000/svg">
<path d="M6.55812 6.11019L6.81817 6.07227L6.93441 5.83658L9.37544 0.887246C9.63051 0.370623 10.3683 0.371093 10.6248 0.887635C10.6248 0.88775 10.6249 0.887865 10.6249 0.88798L13.0656 5.83658L13.1818 6.07227L13.4419 6.11019L18.9036 6.90645L18.9039 6.9065C19.4727 6.989 19.702 7.69197 19.2886 8.09456L19.2884 8.0947L15.337 11.9452L15.1487 12.1287L15.1932 12.3879L16.1277 17.8268C16.2249 18.3949 15.6253 18.8262 15.1187 18.5598L15.1186 18.5597L10.2326 15.9915L10 15.8692L9.76737 15.9915L4.88139 18.5597L4.87982 18.5606C4.37672 18.8273 3.77457 18.3979 3.87229 17.8268L4.80681 12.3879L4.85135 12.1287L4.66298 11.9452L0.711584 8.0947L0.711442 8.09456C0.297972 7.69197 0.527296 6.989 1.09608 6.9065L1.09645 6.90645L6.55812 6.11019Z" fill="#FFD333" stroke="#8A8787"/>
</svg>
