<svg width="37" height="30" viewBox="0 0 37 30" fill="none" xmlns="http://www.w3.org/2000/svg">
<path d="M2.90222 22.0078C3.03519 22.5058 3.54394 22.8047 4.03534 22.6699L16.546 19.2715C17.0374 19.1367 17.3322 18.6211 17.1992 18.123L14.326 7.2539C14.193 6.75585 13.6842 6.45702 13.1928 6.59179L8.72971 7.81054L10.1635 13.2422L6.59065 14.209L5.1569 8.77733L0.688 9.99022C0.196594 10.125 -0.0982495 10.6406 0.0347191 11.1387L2.90222 22.0078ZM22.2 0C21.1767 0 20.35 0.83789 20.35 1.875V20.8359L0.341125 26.3672C0.0925315 26.4375 -0.0519996 26.6953 0.0173753 26.9414L0.745812 29.6543C0.815187 29.9062 1.06956 30.0527 1.31237 29.9824L24.0731 23.6894C24.2119 27.1933 27.0331 30 30.525 30C34.1036 30 37 27.0644 37 23.4375V0H22.2ZM30.525 26.25C28.993 26.25 27.75 24.9902 27.75 23.4375C27.75 21.8847 28.993 20.625 30.525 20.625C32.057 20.625 33.3 21.8847 33.3 23.4375C33.3 24.9902 32.057 26.25 30.525 26.25Z" fill="black"/>
</svg>
